<svg xmlns="http://www.w3.org/2000/svg" width="148" height="135" fill="none" viewBox="0 0 148 135">
  <g clip-path="url(#a)">
    <path fill="#BE79DF" d="M6.471 77.699a3.236 3.236 0 0 1-3.232 3.245A3.241 3.241 0 0 1 0 77.699a3.236 3.236 0 0 1 3.232-3.245 3.241 3.241 0 0 1 3.24 3.245Zm16.809 3.245a3.239 3.239 0 0 0 3.232-3.245 3.239 3.239 0 0 0-3.232-3.245 3.239 3.239 0 0 0-3.233 3.245 3.239 3.239 0 0 0 3.233 3.245Zm20.047 0a3.239 3.239 0 0 0 3.233-3.245 3.239 3.239 0 0 0-3.233-3.245 3.239 3.239 0 0 0-3.232 3.245 3.239 3.239 0 0 0 3.232 3.245ZM66.6 77.699a3.236 3.236 0 0 1-3.232 3.245 3.236 3.236 0 0 1-3.232-3.245 3.236 3.236 0 0 1 3.232-3.245 3.236 3.236 0 0 1 3.233 3.245ZM6.471 95.718a3.236 3.236 0 0 1-3.232 3.244A3.241 3.241 0 0 1 0 95.717a3.236 3.236 0 0 1 3.232-3.244 3.241 3.241 0 0 1 3.24 3.245Zm16.809 3.244a3.239 3.239 0 0 0 3.232-3.245 3.239 3.239 0 0 0-3.232-3.244 3.239 3.239 0 0 0-3.233 3.245 3.239 3.239 0 0 0 3.233 3.244Zm20.047 0a3.239 3.239 0 0 0 3.233-3.245 3.239 3.239 0 0 0-3.233-3.244 3.239 3.239 0 0 0-3.232 3.245 3.239 3.239 0 0 0 3.232 3.244ZM66.6 95.718a3.236 3.236 0 0 1-3.232 3.244 3.236 3.236 0 0 1-3.232-3.245 3.236 3.236 0 0 1 3.232-3.244 3.236 3.236 0 0 1 3.233 3.245ZM6.471 113.736a3.236 3.236 0 1 1-6.471 0 3.236 3.236 0 0 1 3.232-3.245 3.242 3.242 0 0 1 3.24 3.245Zm16.809 3.245a3.239 3.239 0 0 0 3.232-3.245 3.239 3.239 0 0 0-3.232-3.245 3.239 3.239 0 0 0-3.233 3.245 3.239 3.239 0 0 0 3.233 3.245Zm20.047 0a3.239 3.239 0 0 0 3.233-3.245 3.239 3.239 0 0 0-3.233-3.245 3.239 3.239 0 0 0-3.232 3.245 3.239 3.239 0 0 0 3.232 3.245Zm23.273-3.245a3.236 3.236 0 0 1-3.232 3.245 3.236 3.236 0 0 1-3.232-3.245 3.236 3.236 0 0 1 3.232-3.245 3.236 3.236 0 0 1 3.233 3.245ZM6.471 131.755A3.236 3.236 0 0 1 3.24 135 3.245 3.245 0 0 1 0 131.755a3.24 3.24 0 0 1 3.232-3.245 3.242 3.242 0 0 1 3.24 3.245ZM23.28 135a3.239 3.239 0 0 0 3.232-3.245 3.239 3.239 0 0 0-3.232-3.245 3.239 3.239 0 0 0-3.233 3.245A3.239 3.239 0 0 0 23.28 135Zm20.047 0a3.239 3.239 0 0 0 3.233-3.245 3.239 3.239 0 0 0-3.233-3.245 3.239 3.239 0 0 0-3.232 3.245A3.239 3.239 0 0 0 43.327 135Zm23.273-3.245A3.236 3.236 0 0 1 63.369 135a3.236 3.236 0 0 1-3.232-3.245 3.236 3.236 0 0 1 3.232-3.245 3.236 3.236 0 0 1 3.233 3.245Z"/>
  </g>
  <g clip-path="url(#b)">
    <path fill="#BE79DF" d="M6.471 3.245A3.236 3.236 0 0 1 3.24 6.49 3.241 3.241 0 0 1 0 3.245 3.236 3.236 0 0 1 3.232 0a3.241 3.241 0 0 1 3.24 3.245ZM23.28 6.49a3.239 3.239 0 0 0 3.232-3.245A3.239 3.239 0 0 0 23.28 0a3.239 3.239 0 0 0-3.233 3.245A3.239 3.239 0 0 0 23.28 6.49Zm20.047 0a3.239 3.239 0 0 0 3.233-3.245A3.239 3.239 0 0 0 43.327 0a3.239 3.239 0 0 0-3.232 3.245 3.239 3.239 0 0 0 3.232 3.245ZM66.6 3.245a3.236 3.236 0 0 1-3.232 3.245 3.236 3.236 0 0 1-3.232-3.245A3.236 3.236 0 0 1 63.368 0a3.236 3.236 0 0 1 3.233 3.245ZM6.471 21.264a3.236 3.236 0 0 1-3.232 3.245A3.241 3.241 0 0 1 0 21.264a3.236 3.236 0 0 1 3.232-3.245 3.241 3.241 0 0 1 3.24 3.245Zm16.809 3.245a3.239 3.239 0 0 0 3.232-3.245 3.239 3.239 0 0 0-3.232-3.245 3.239 3.239 0 0 0-3.233 3.245 3.239 3.239 0 0 0 3.233 3.245Zm20.047 0a3.239 3.239 0 0 0 3.233-3.245 3.239 3.239 0 0 0-3.233-3.245 3.239 3.239 0 0 0-3.232 3.245 3.239 3.239 0 0 0 3.232 3.245ZM66.6 21.264a3.236 3.236 0 0 1-3.232 3.245 3.236 3.236 0 0 1-3.232-3.245 3.236 3.236 0 0 1 3.232-3.245 3.236 3.236 0 0 1 3.233 3.245ZM6.471 39.282a3.236 3.236 0 0 1-3.232 3.246A3.241 3.241 0 0 1 0 39.283a3.236 3.236 0 0 1 3.232-3.245 3.241 3.241 0 0 1 3.24 3.245Zm16.809 3.246a3.239 3.239 0 0 0 3.232-3.245 3.239 3.239 0 0 0-3.232-3.245 3.239 3.239 0 0 0-3.233 3.245 3.239 3.239 0 0 0 3.233 3.245Zm20.047 0a3.239 3.239 0 0 0 3.233-3.245 3.239 3.239 0 0 0-3.233-3.245 3.239 3.239 0 0 0-3.232 3.245 3.239 3.239 0 0 0 3.232 3.245ZM66.6 39.282a3.236 3.236 0 0 1-3.232 3.246 3.236 3.236 0 0 1-3.232-3.245 3.236 3.236 0 0 1 3.232-3.245 3.236 3.236 0 0 1 3.233 3.245ZM6.471 57.301a3.236 3.236 0 0 1-3.232 3.245A3.245 3.245 0 0 1 0 57.301a3.24 3.24 0 0 1 3.232-3.245 3.241 3.241 0 0 1 3.24 3.245Zm16.809 3.245a3.239 3.239 0 0 0 3.232-3.245 3.239 3.239 0 0 0-3.232-3.245 3.239 3.239 0 0 0-3.233 3.245 3.239 3.239 0 0 0 3.233 3.245Zm20.047 0a3.239 3.239 0 0 0 3.233-3.245 3.239 3.239 0 0 0-3.233-3.245 3.239 3.239 0 0 0-3.232 3.245 3.239 3.239 0 0 0 3.232 3.245ZM66.6 57.301a3.236 3.236 0 0 1-3.232 3.245 3.236 3.236 0 0 1-3.232-3.245 3.236 3.236 0 0 1 3.232-3.245 3.236 3.236 0 0 1 3.233 3.245Z"/>
  </g>
  <g clip-path="url(#c)">
    <path fill="#BE79DF" d="M86.98 77.699a3.236 3.236 0 0 1-3.233 3.245 3.241 3.241 0 0 1-3.239-3.245 3.236 3.236 0 0 1 3.233-3.245 3.241 3.241 0 0 1 3.239 3.245Zm16.808 3.245a3.24 3.24 0 0 0 3.233-3.245 3.24 3.24 0 0 0-3.233-3.245 3.238 3.238 0 0 0-3.232 3.245 3.238 3.238 0 0 0 3.232 3.245Zm20.048 0a3.238 3.238 0 0 0 3.232-3.245 3.238 3.238 0 0 0-3.232-3.245 3.239 3.239 0 0 0-3.233 3.245 3.239 3.239 0 0 0 3.233 3.245Zm23.273-3.245a3.236 3.236 0 0 1-3.232 3.245 3.236 3.236 0 0 1-3.233-3.245 3.236 3.236 0 0 1 3.233-3.245 3.236 3.236 0 0 1 3.232 3.245ZM86.98 95.718a3.236 3.236 0 0 1-3.233 3.244 3.241 3.241 0 0 1-3.239-3.245 3.236 3.236 0 0 1 3.233-3.244 3.241 3.241 0 0 1 3.239 3.245Zm16.808 3.244a3.24 3.24 0 0 0 3.233-3.245 3.24 3.24 0 0 0-3.233-3.244 3.238 3.238 0 0 0-3.232 3.245 3.238 3.238 0 0 0 3.232 3.244Zm20.048 0a3.238 3.238 0 0 0 3.232-3.245 3.238 3.238 0 0 0-3.232-3.244 3.239 3.239 0 0 0-3.233 3.245 3.239 3.239 0 0 0 3.233 3.244Zm23.273-3.244a3.236 3.236 0 0 1-3.232 3.244 3.236 3.236 0 0 1-3.233-3.245 3.236 3.236 0 0 1 3.233-3.244 3.236 3.236 0 0 1 3.232 3.245ZM86.98 113.736a3.236 3.236 0 1 1-6.472 0 3.236 3.236 0 0 1 3.233-3.245 3.242 3.242 0 0 1 3.239 3.245Zm16.808 3.245a3.24 3.24 0 0 0 3.233-3.245 3.24 3.24 0 0 0-3.233-3.245 3.239 3.239 0 0 0-3.232 3.245 3.239 3.239 0 0 0 3.232 3.245Zm20.048 0a3.239 3.239 0 0 0 3.232-3.245 3.239 3.239 0 0 0-3.232-3.245 3.239 3.239 0 0 0-3.233 3.245 3.239 3.239 0 0 0 3.233 3.245Zm23.273-3.245a3.235 3.235 0 0 1-3.232 3.245 3.236 3.236 0 0 1-3.233-3.245 3.236 3.236 0 0 1 3.233-3.245 3.236 3.236 0 0 1 3.232 3.245ZM86.98 131.755A3.236 3.236 0 0 1 83.746 135a3.245 3.245 0 0 1-3.239-3.245 3.24 3.24 0 0 1 3.233-3.245 3.242 3.242 0 0 1 3.239 3.245ZM103.788 135a3.24 3.24 0 0 0 3.233-3.245 3.24 3.24 0 0 0-3.233-3.245 3.239 3.239 0 0 0-3.232 3.245 3.239 3.239 0 0 0 3.232 3.245Zm20.048 0a3.239 3.239 0 0 0 3.232-3.245 3.239 3.239 0 0 0-3.232-3.245 3.239 3.239 0 0 0-3.233 3.245 3.239 3.239 0 0 0 3.233 3.245Zm23.273-3.245a3.236 3.236 0 0 1-3.232 3.245 3.236 3.236 0 0 1-3.233-3.245 3.236 3.236 0 0 1 3.233-3.245 3.236 3.236 0 0 1 3.232 3.245Z"/>
  </g>
  <g clip-path="url(#d)">
    <path fill="#BE79DF" d="M86.98 3.245a3.236 3.236 0 0 1-3.233 3.245 3.241 3.241 0 0 1-3.239-3.245A3.236 3.236 0 0 1 83.741 0a3.241 3.241 0 0 1 3.239 3.245Zm16.808 3.245a3.24 3.24 0 0 0 3.233-3.245A3.24 3.24 0 0 0 103.788 0a3.238 3.238 0 0 0-3.232 3.245 3.238 3.238 0 0 0 3.232 3.245Zm20.048 0a3.238 3.238 0 0 0 3.232-3.245A3.238 3.238 0 0 0 123.836 0a3.239 3.239 0 0 0-3.233 3.245 3.239 3.239 0 0 0 3.233 3.245Zm23.273-3.245a3.236 3.236 0 0 1-3.232 3.245 3.236 3.236 0 0 1-3.233-3.245A3.236 3.236 0 0 1 143.877 0a3.236 3.236 0 0 1 3.232 3.245ZM86.98 21.264a3.236 3.236 0 0 1-3.233 3.245 3.241 3.241 0 0 1-3.239-3.245 3.236 3.236 0 0 1 3.233-3.245 3.241 3.241 0 0 1 3.239 3.245Zm16.808 3.245a3.24 3.24 0 0 0 3.233-3.245 3.24 3.24 0 0 0-3.233-3.245 3.238 3.238 0 0 0-3.232 3.245 3.238 3.238 0 0 0 3.232 3.245Zm20.048 0a3.238 3.238 0 0 0 3.232-3.245 3.238 3.238 0 0 0-3.232-3.245 3.239 3.239 0 0 0-3.233 3.245 3.239 3.239 0 0 0 3.233 3.245Zm23.273-3.245a3.236 3.236 0 0 1-3.232 3.245 3.236 3.236 0 0 1-3.233-3.245 3.236 3.236 0 0 1 3.233-3.245 3.236 3.236 0 0 1 3.232 3.245ZM86.98 39.283a3.236 3.236 0 0 1-3.233 3.245 3.241 3.241 0 0 1-3.239-3.245 3.236 3.236 0 0 1 3.233-3.245 3.241 3.241 0 0 1 3.239 3.245Zm16.808 3.245a3.24 3.24 0 0 0 3.233-3.245 3.24 3.24 0 0 0-3.233-3.245 3.238 3.238 0 0 0-3.232 3.245 3.238 3.238 0 0 0 3.232 3.245Zm20.048 0a3.238 3.238 0 0 0 3.232-3.245 3.238 3.238 0 0 0-3.232-3.245 3.239 3.239 0 0 0-3.233 3.245 3.239 3.239 0 0 0 3.233 3.245Zm23.273-3.245a3.236 3.236 0 0 1-3.232 3.245 3.236 3.236 0 0 1-3.233-3.245 3.236 3.236 0 0 1 3.233-3.245 3.236 3.236 0 0 1 3.232 3.245ZM86.98 57.301a3.236 3.236 0 0 1-3.233 3.245 3.245 3.245 0 0 1-3.239-3.245 3.24 3.24 0 0 1 3.233-3.245 3.241 3.241 0 0 1 3.239 3.245Zm16.808 3.245a3.24 3.24 0 0 0 3.233-3.245 3.24 3.24 0 0 0-3.233-3.245 3.238 3.238 0 0 0-3.232 3.245 3.238 3.238 0 0 0 3.232 3.245Zm20.048 0a3.238 3.238 0 0 0 3.232-3.245 3.238 3.238 0 0 0-3.232-3.245 3.239 3.239 0 0 0-3.233 3.245 3.239 3.239 0 0 0 3.233 3.245Zm23.273-3.245a3.236 3.236 0 0 1-3.232 3.245 3.236 3.236 0 0 1-3.233-3.245 3.236 3.236 0 0 1 3.233-3.245 3.236 3.236 0 0 1 3.232 3.245Z"/>
  </g>
  <defs>
    <clipPath id="a">
      <path fill="#fff" d="M0 74.454h66.601V135H0z"/>
    </clipPath>
    <clipPath id="b">
      <path fill="#fff" d="M0 0h66.601v60.546H0z"/>
    </clipPath>
    <clipPath id="c">
      <path fill="#fff" d="M80.508 74.454h66.601V135H80.508z"/>
    </clipPath>
    <clipPath id="d">
      <path fill="#fff" d="M80.508 0h66.601v60.546H80.508z"/>
    </clipPath>
  </defs>
</svg>
