<svg xmlns="http://www.w3.org/2000/svg" width="533" height="534" fill="none" viewBox="0 0 533 534">
  <g clip-path="url(#a)">
    <path stroke="#fff" stroke-miterlimit="10" stroke-width="7" d="M534 525.591c-145.147 0-276.545-58.824-371.656-153.935C67.234 276.545 8.409 145.147 8.409 0"/>
    <path stroke="#fff" stroke-miterlimit="10" stroke-width="7" d="M74.087 0c0 126.983 51.466 241.982 134.72 325.193 83.211 83.254 198.21 134.72 325.193 134.72"/>
    <path stroke="#fff" stroke-miterlimit="10" stroke-width="7" d="M534 394.193c-108.86 0-207.419-44.108-278.731-115.462C183.915 207.419 139.807 108.86 139.807 0"/>
    <path stroke="#fff" stroke-miterlimit="10" stroke-width="7" d="M534 328.515c-90.738 0-172.856-36.791-232.311-96.204C242.276 172.856 205.485 90.738 205.485 0"/>
    <path stroke="#fff" stroke-miterlimit="10" stroke-width="7" d="M271.205 0c0 72.573 29.433 138.251 76.946 185.849 47.598 47.513 113.275 76.946 185.849 76.946"/>
    <path stroke="#fff" stroke-miterlimit="10" stroke-width="7" d="M534 197.117c-54.409 0-103.689-22.074-139.387-57.73-35.656-35.699-57.73-84.978-57.73-139.387m65.719 0c0 36.287 14.717 69.126 38.474 92.924 23.798 23.757 56.637 38.474 92.924 38.474m0-65.678c-18.164 0-34.563-7.358-46.462-19.258-11.9-11.9-19.258-28.298-19.258-46.462"/>
    <path fill="#C4C4C4" d="M378 273h156v10H378z"/>
  </g>
  <defs>
    <clipPath id="a">
      <path fill="#fff" d="M534 534H0V0h534z"/>
    </clipPath>
  </defs>
</svg>
